<?xml version="1.0" standalone="no"?><!-- Generator: Gravit.io --><svg xmlns="http://www.w3.org/2000/svg" xmlns:xlink="http://www.w3.org/1999/xlink" style="isolation:isolate" viewBox="0 0 120 64" width="120" height="64"><defs><clipPath id="_clipPath_y26UpGjkQTC2RU1bJmJjWER7Gd4OPvMM"><rect width="120" height="64"/></clipPath></defs><g clip-path="url(#_clipPath_y26UpGjkQTC2RU1bJmJjWER7Gd4OPvMM)"><path d=" M 0 0 L 0 64 L 120 64 L 120 0 L 0 0 Z " fill="none" vector-effect="non-scaling-stroke" stroke-width="1" stroke="rgb(0,0,0)" stroke-linejoin="miter" stroke-linecap="square" stroke-miterlimit="3"/><path d=" M 32 -8 L 36 32 L 68 12 L 32 -8 Z " fill="rgb(209,232,249)"/><path d=" M 92 28 L 40 40 L 72 52 L 92 28 Z " fill="rgb(209,232,249)"/><path d=" M 36 32 L 20 44 L 32 56 L 36 32 Z " fill="rgb(209,232,249)"/><path d=" M 8 40 L 32 56 L 20 44 L 8 40 Z " fill="rgb(209,232,249)"/><path d=" M -12 20 L 8 40 L 20 44 L -12 20 Z " fill="rgb(209,232,249)"/><path d=" M 108 20 L 128 40 L 140 44 L 108 20 Z " fill="rgb(209,232,249)"/><path d=" M 108 68 L 128 40 L 108 20 L 108 68 Z " fill="rgb(209,232,249)"/><path d=" M -12 68 L 8 40 L -12 20 L -12 68 Z " fill="rgb(209,232,249)"/><path d=" M 108 4 L 128 -24 L 108 -44 L 108 4 Z " fill="rgb(209,232,249)"/><path d=" M 32 -8 L 20 44 L 36 32 L 32 -8 Z " fill="rgb(209,232,249)"/><path d=" M 8 12 L 32 -8 L 20 44 L 8 12 Z " fill="rgb(209,232,249)"/><path d=" M 8 -24 L 32 -8 L 8 12 L 8 -24 Z " fill="rgb(209,232,249)"/><path d=" M 8 76 L 32 56 L 20 108 L 8 76 Z " fill="rgb(209,232,249)"/><path d=" M 8 40 L 32 56 L 8 76 L 8 40 Z " fill="rgb(209,232,249)"/><path d=" M 32 56 L 20 108 L 36 96 L 32 56 Z " fill="rgb(209,232,249)"/><path d=" M 32 56 L 36 96 L 68 76 L 32 56 Z " fill="rgb(209,232,249)"/><path d=" M 84 48 L 68 84 L 96 72 L 84 48 Z " fill="rgb(209,232,249)"/><path d=" M 84 -16 L 68 20 L 96 8 L 84 -16 Z " fill="rgb(209,232,249)"/><path d=" M 8 12 L -12 20 L 20 44 L 8 12 Z " fill="rgb(209,232,249)"/><path d=" M 128 12 L 108 20 L 140 44 L 128 12 Z " fill="rgb(209,232,249)"/><path d=" M -12 4 L 8 12 L 8 8 L -12 4 Z " fill="rgb(209,232,249)"/><path d=" M -12 20 L 8 12 L -12 4 L -12 20 Z " fill="rgb(209,232,249)"/><path d=" M 108 4 L 128 12 L 128 8 L 108 4 Z " fill="rgb(209,232,249)"/><path d=" M 108 20 L 128 12 L 108 4 L 108 20 Z " fill="rgb(209,232,249)"/><path d=" M 84 48 L 108 64 L 92 64 L 84 48 Z " fill="rgb(209,232,249)"/><path d=" M 92 0 L 96 8 L 108 0 L 92 0 Z " fill="rgb(209,232,249)"/><path d=" M 92 28 L 96 8 L 108 0 L 92 28 Z " fill="rgb(209,232,249)"/><path d=" M 108 44 L 92 28 L 108 0 L 108 44 Z " fill="rgb(209,232,249)"/><path d=" M 84 48 L 108 44 L 108 64 L 84 48 Z " fill="rgb(209,232,249)"/><path d=" M 92 28 L 84 48 L 108 44 L 92 28 Z " fill="rgb(209,232,249)"/><path d=" M 72 52 L 84 48 L 92 28 L 72 52 Z " fill="rgb(209,232,249)"/><path d=" M 68 76 L 72 52 L 84 48 L 68 76 Z " fill="rgb(209,232,249)"/><path d=" M 68 12 L 72 -12 L 84 -16 L 68 12 Z " fill="rgb(209,232,249)"/><path d=" M 68 20 L 68 12 L 84 -16 L 68 20 Z " fill="rgb(209,232,249)"/><path d=" M 68 84 L 68 76 L 84 48 L 68 84 Z " fill="rgb(209,232,249)"/><path d=" M 32 56 L 72 52 L 68 76 L 32 56 Z " fill="rgb(209,232,249)"/><path d=" M 32 -8 L 72 -12 L 68 12 L 32 -8 Z " fill="rgb(209,232,249)"/><path d=" M 96 8 L 92 28 L 68 20 L 96 8 Z " fill="rgb(209,232,249)"/><path d=" M 40 40 L 68 20 L 92 28 L 40 40 Z " fill="rgb(209,232,249)"/><path d=" M 36 32 L 68 20 L 68 12 L 36 32 Z " fill="rgb(209,232,249)"/><path d=" M 40 40 L 36 32 L 68 20 L 40 40 Z " fill="rgb(209,232,249)"/><path d=" M 32 56 L 40 40 L 36 32 L 32 56 Z " fill="rgb(209,232,249)"/><path d=" M 72 52 L 40 40 L 32 56 L 72 52 Z " fill="rgb(209,232,249)"/><path d=" M 8 40 L -12 68 L 8 72 L 8 40 Z " fill="rgb(209,232,249)"/><path d=" M 128 40 L 108 68 L 128 72 L 128 40 Z " fill="rgb(209,232,249)"/><path d=" M 8 -24 L -12 4 L 8 8 L 8 -24 Z " fill="rgb(209,232,249)"/><path d=" M 128 -24 L 108 4 L 128 8 L 128 -24 Z " fill="rgb(209,232,249)"/></g></svg>