<svg xmlns="http://www.w3.org/2000/svg" xmlns:xlink="http://www.w3.org/1999/xlink" viewBox="0 0 120 64" width="120" height="64"><path d="M32 -8L36 32L68 12L32 -8Z" fill="hsl(205,81%,94%)"/><path d="M92 28L40 40L72 52L92 28Z" fill="hsl(205,80%,93%)"/><path d="M36 32L20 44L32 56L36 32Z" fill="hsl(205,71%,84%)"/><path d="M8 40L32 56L20 44L8 40Z" fill="hsl(205,71%,84%)"/><path d="M-12 20L8 40L20 44L-12 20Z" fill="hsl(205,76%,89%)"/><path d="M108 20L128 40L140 44L108 20Z" fill="hsl(205,76%,89%)"/><path d="M108 68L128 40L108 20L108 68Z" fill="hsl(205,81%,94%)"/><path d="M-12 68L8 40L-12 20L-12 68Z" fill="hsl(205,81%,94%)"/><path d="M108 4L128 -24L108 -44L108 4Z" fill="hsl(205,81%,94%)"/><path d="M32 -8L20 44L36 32L32 -8Z" fill="hsl(205,79%,92%)"/><path d="M8 12L32 -8L20 44L8 12Z" fill="hsl(205,71%,84%)"/><path d="M8 -24L32 -8L8 12L8 -24Z" fill="hsl(205,80%,93%)"/><path d="M8 76L32 56L20 108L8 76Z" fill="hsl(205,71%,84%)"/><path d="M8 40L32 56L8 76L8 40Z" fill="hsl(205,80%,93%)"/><path d="M32 56L20 108L36 96L32 56Z" fill="hsl(205,79%,92%)"/><path d="M32 56L36 96L68 76L32 56Z" fill="hsl(205,81%,94%)"/><path d="M84 48L68 84L96 72L84 48Z" fill="hsl(205,78%,91%)"/><path d="M84 -16L68 20L96 8L84 -16Z" fill="hsl(205,78%,91%)"/><path d="M8 12L-12 20L20 44L8 12Z" fill="hsl(205,80%,93%)"/><path d="M128 12L108 20L140 44L128 12Z" fill="hsl(205,80%,93%)"/><path d="M-12 4L8 12L8 8L-12 4Z" fill="hsl(205,73%,86%)"/><path d="M-12 20L8 12L-12 4L-12 20Z" fill="hsl(205,74%,87%)"/><path d="M108 4L128 12L128 8L108 4Z" fill="hsl(205,73%,86%)"/><path d="M108 20L128 12L108 4L108 20Z" fill="hsl(205,73%,86%)"/><path d="M84 48L108 64L92 64L84 48Z" fill="hsl(205,76%,89%)"/><path d="M92 0L96 8L108 0L92 0Z" fill="hsl(205,72%,85%)"/><path d="M92 28L96 8L108 0L92 28Z" fill="hsl(205,74%,87%)"/><path d="M108 44L92 28L108 0L108 44Z" fill="hsl(205,79%,92%)"/><path d="M84 48L108 44L108 64L84 48Z" fill="hsl(205,76%,89%)"/><path d="M92 28L84 48L108 44L92 28Z" fill="hsl(205,79%,92%)"/><path d="M72 52L84 48L92 28L72 52Z" fill="hsl(205,76%,89%)"/><path d="M68 76L72 52L84 48L68 76Z" fill="hsl(205,79%,92%)"/><path d="M68 12L72 -12L84 -16L68 12Z" fill="hsl(205,79%,92%)"/><path d="M68 20L68 12L84 -16L68 20Z" fill="hsl(205,77%,90%)"/><path d="M68 84L68 76L84 48L68 84Z" fill="hsl(205,79%,92%)"/><path d="M32 56L72 52L68 76L32 56Z" fill="hsl(205,72%,85%)"/><path d="M32 -8L72 -12L68 12L32 -8Z" fill="hsl(205,71%,84%)"/><path d="M96 8L92 28L68 20L96 8Z" fill="hsl(205,73%,86%)"/><path d="M40 40L68 20L92 28L40 40Z" fill="hsl(205,79%,92%)"/><path d="M36 32L68 20L68 12L36 32Z" fill="hsl(205,72%,85%)"/><path d="M40 40L36 32L68 20L40 40Z" fill="hsl(205,79%,92%)"/><path d="M32 56L40 40L36 32L32 56Z" fill="hsl(205,71%,84%)"/><path d="M72 52L40 40L32 56L72 52Z" fill="hsl(205,74%,87%)"/><path d="M8 40L-12 68L8 72L8 40Z" fill="hsl(205,77%,90%)"/><path d="M128 40L108 68L128 72L128 40Z" fill="hsl(205,77%,90%)"/><path d="M8 -24L-12 4L8 8L8 -24Z" fill="hsl(205,77%,90%)"/><path d="M128 -24L108 4L128 8L128 -24Z" fill="hsl(205,77%,90%)"/></svg>
