<svg xmlns="http://www.w3.org/2000/svg" xmlns:xlink="http://www.w3.org/1999/xlink" style="isolation:isolate" viewBox="0 0 100 100" width="100" height="100"><path d="M24 20L16 36L44 44Z" fill="hsl(91,57%,57%)"/><path d="M80 44L56 64L88 68L80 44Z" fill="hsl(91,54%,54%)"/><path d="M0 20L28 0L0 0L0 20Z" fill="hsl(91,54%,54%)"/><path d="M0 80L0 100L16 100L0 80Z" fill="hsl(91,62%,62%)"/><path d="M52 100L100 100L100 80L52 100Z" fill="hsl(91,54%,54%)"/><path d="M76 0L100 44L100 0Z" fill="hsl(91,53%,53%)"/><path d="M44 44L48 32L24 20L44 44Z" fill="hsl(91,56%,56%)"/><path d="M48 32L80 44L76 24L48 32Z" fill="hsl(91,59%,59%)"/><path d="M44 44L80 44L48 32L44 44Z" fill="hsl(91,58%,58%)"/><path d="M44 44L56 64L80 44L44 44Z" fill="hsl(91,57%,57%)"/><path d="M76 24L80 44L100 44L76 24Z" fill="hsl(91,60%,60%)"/><path d="M88 68L100 44L80 44L88 68Z" fill="hsl(91,58%,58%)"/><path d="M100 80L88 68L100 44L100 80Z" fill="hsl(91,60%,60%)"/><path d="M56 64L40 68L88 68L56 64Z" fill="hsl(91,63%,63%)"/><path d="M24 96L52 100L16 100L24 96Z" fill="hsl(91,54%,54%)"/><path d="M40 68L52 100L24 96L40 68Z" fill="hsl(91,58%,58%)"/><path d="M88 68L52 100L40 68L88 68Z" fill="hsl(91,62%,62%)"/><path d="M100 80L88 68L52 100L100 80Z" fill="hsl(91,54%,54%)"/><path d="M44 44L40 68L56 64L44 44Z" fill="hsl(91,61%,61%)"/><path d="M16 36L40 68L44 44L16 36Z" fill="hsl(91,63%,63%)"/><path d="M24 96L0 80L16 100L24 96Z" fill="hsl(91,55%,55%)"/><path d="M24 20L0 20L28 0L24 20Z" fill="hsl(91,63%,63%)"/><path d="M16 36L0 20L24 20L16 36Z" fill="hsl(91,58%,58%)"/><path d="M0 52L16 36L0 20L0 52Z" fill="hsl(91,61%,61%)"/><path d="M16 36L12 72L40 68Z" fill="hsl(91,63%,63%)"/><path d="M0 80L12 72L0 52Z" fill="hsl(91,54%,54%)"/><path d="M16 36L0 52L12 72Z" fill="hsl(91,56%,56%)"/><path d="M40 68L12 72L24 96Z" fill="hsl(91,61%,61%)"/><path d="M12 72L0 80L24 96Z" fill="hsl(91,55%,55%)"/><path d="M76 0L76 24L100 44Z" fill="hsl(91,57%,57%)"/><path d="M24 20L48 0L48 32Z" fill="hsl(91,60%,60%)"/><path d="M28 0L48 0L24 20Z" fill="hsl(91,56%,56%)"/><path d="M76 24L48 0L48 32Z" fill="hsl(91,63%,63%)"/><path d="M76 0L48 0L76 24Z" fill="hsl(91,60%,60%)"/></svg>
