<?xml version="1.0" standalone="no"?><!-- Generator: Gravit.io --><svg xmlns="http://www.w3.org/2000/svg" xmlns:xlink="http://www.w3.org/1999/xlink" style="isolation:isolate" viewBox="604 344 72 64" width="72" height="64"><defs><clipPath id="_clipPath_jv4ausul74kcqicI6h92ZUSOI8ecTZ4f"><rect x="604" y="344" width="72" height="64"/></clipPath></defs><g clip-path="url(#_clipPath_jv4ausul74kcqicI6h92ZUSOI8ecTZ4f)"><path d=" M 632 344 L 640 356 L 644 348 L 632 344 Z " fill="rgb(193,175,108)"/><path d=" M 648 344 L 632 344 L 644 348 L 648 344 Z " fill="rgb(193,175,108)"/><path d=" M 652 356 L 644 348 L 648 344 L 652 356 Z " fill="rgb(193,175,108)"/><path d=" M 640 356 L 632 364 L 652 364 L 640 356 Z " fill="rgb(193,175,108)"/><path d=" M 632 344 L 628 356 L 640 356 L 632 344 Z " fill="rgb(193,175,108)"/><path d=" M 620 356 L 620 364 L 616 360 L 620 356 Z " fill="rgb(193,175,108)"/><path d=" M 640 356 L 620 356 L 620 364 L 640 356 Z " fill="rgb(193,175,108)"/><path d=" M 632 364 L 620 364 L 640 356 L 632 364 Z " fill="rgb(193,175,108)"/><path d=" M 644 348 L 640 356 L 652 356 L 644 348 Z " fill="rgb(193,175,108)"/><path d=" M 664 360 L 640 356 L 660 356 L 664 360 Z " fill="rgb(193,175,108)"/><path d=" M 664 360 L 652 364 L 640 356 L 664 360 Z " fill="rgb(193,175,108)"/><path d=" M 660 364 L 664 360 L 652 364 L 660 364 Z " fill="rgb(193,175,108)"/><path d=" M 640 368 L 632 380 L 644 380 L 640 368 Z " fill="rgb(232,222,187)"/><path d=" M 652 364 L 644 364 L 652 376 L 652 364 Z " fill="rgb(232,222,187)"/><path d=" M 628 364 L 640 368 L 644 364 L 628 364 Z " fill="rgb(232,222,187)"/><path d=" M 628 376 L 640 368 L 628 364 L 628 376 Z " fill="rgb(232,222,187)"/><path d=" M 632 380 L 628 376 L 640 368 L 632 380 Z " fill="rgb(232,222,187)"/><path d=" M 628 384 L 632 380 L 628 376 L 628 384 Z " fill="rgb(232,222,187)"/><path d=" M 644 380 L 640 388 L 632 380 L 644 380 Z " fill="rgb(232,222,187)"/><path d=" M 632 380 L 628 384 L 640 388 L 632 380 Z " fill="rgb(232,222,187)"/><path d=" M 644 380 L 652 384 L 640 388 L 644 380 Z " fill="rgb(232,222,187)"/><path d=" M 644 364 L 644 380 L 640 368 L 644 364 Z " fill="rgb(232,222,187)"/><path d=" M 652 376 L 644 380 L 644 364 L 652 376 Z " fill="rgb(232,222,187)"/><path d=" M 652 384 L 644 380 L 652 376 L 652 384 Z " fill="rgb(232,222,187)"/><path d=" M 624 388 L 612 404 L 628 404 L 624 388 Z " fill="rgb(193,93,93)"/><path d=" M 632 396 L 648 404 L 656 388 L 632 396 Z " fill="rgb(193,93,93)"/><path d=" M 668 392 L 656 408 L 676 408 L 668 392 Z " fill="rgb(193,93,93)"/><path d=" M 664 384 L 656 388 L 668 392 L 664 384 Z " fill="rgb(193,93,93)"/><path d=" M 656 408 L 656 388 L 668 392 L 656 408 Z " fill="rgb(193,93,93)"/><path d=" M 648 404 L 656 408 L 656 388 L 648 404 Z " fill="rgb(193,93,93)"/><path d=" M 652 384 L 656 388 L 664 384 L 652 384 Z " fill="rgb(193,93,93)"/><path d=" M 640 388 L 656 388 L 652 384 L 640 388 Z " fill="rgb(193,93,93)"/><path d=" M 632 396 L 656 388 L 640 388 L 632 396 Z " fill="rgb(193,93,93)"/><path d=" M 628 384 L 632 396 L 640 388 L 628 384 Z " fill="rgb(193,93,93)"/><path d=" M 628 384 L 624 388 L 616 384 L 628 384 Z " fill="rgb(193,93,93)"/><path d=" M 632 396 L 624 388 L 628 384 L 632 396 Z " fill="rgb(193,93,93)"/><path d=" M 628 404 L 632 396 L 624 388 L 628 404 Z " fill="rgb(193,93,93)"/><path d=" M 656 408 L 632 396 L 628 404 L 656 408 Z " fill="rgb(193,93,93)"/><path d=" M 628 408 L 628 404 L 656 408 L 628 408 Z " fill="rgb(193,93,93)"/><path d=" M 612 404 L 628 408 L 628 404 L 612 404 Z " fill="rgb(193,93,93)"/><path d=" M 604 408 L 612 404 L 628 408 L 604 408 Z " fill="rgb(193,93,93)"/><path d=" M 616 384 L 612 404 L 624 388 L 616 384 Z " fill="rgb(193,93,93)"/><path d=" M 604 408 L 612 404 L 616 384 L 604 408 Z " fill="rgb(193,93,93)"/></g></svg>