<svg xmlns="http://www.w3.org/2000/svg" xmlns:xlink="http://www.w3.org/1999/xlink" viewBox="604 344 72 64" width="72" height="64"><path d="M632 344L640 356L644 348L632 344Z" fill="hsl(47,37%,56%)"/><path d="M648 344L632 344L644 348L648 344Z" fill="hsl(47,47%,66%)"/><path d="M652 356L644 348L648 344L652 356Z" fill="hsl(47,45%,64%)"/><path d="M640 356L632 364L652 364L640 356Z" fill="hsl(47,34%,53%)"/><path d="M632 344L628 356L640 356L632 344Z" fill="hsl(47,42%,61%)"/><path d="M620 356L620 364L616 360L620 356Z" fill="hsl(47,38%,57%)"/><path d="M640 356L620 356L620 364L640 356Z" fill="hsl(47,39%,58%)"/><path d="M632 364L620 364L640 356L632 364Z" fill="hsl(47,38%,57%)"/><path d="M644 348L640 356L652 356L644 348Z" fill="hsl(47,30%,49%)"/><path d="M664 360L640 356L660 356L664 360Z" fill="hsl(47,30%,49%)"/><path d="M664 360L652 364L640 356L664 360Z" fill="hsl(47,49%,68%)"/><path d="M660 364L664 360L652 364L660 364Z" fill="hsl(47,41%,60%)"/><path d="M640 368L632 380L644 380L640 368Z" fill="hsl(46,59%,92%)"/><path d="M652 364L644 364L652 376L652 364Z" fill="hsl(46,45%,78%)"/><path d="M628 364L640 368L644 364L628 364Z" fill="hsl(46,44%,77%)"/><path d="M628 376L640 368L628 364L628 376Z" fill="hsl(46,40%,73%)"/><path d="M632 380L628 376L640 368L632 380Z" fill="hsl(46,41%,74%)"/><path d="M628 384L632 380L628 376L628 384Z" fill="hsl(46,43%,76%)"/><path d="M644 380L640 388L632 380L644 380Z" fill="hsl(46,46%,79%)"/><path d="M632 380L628 384L640 388L632 380Z" fill="hsl(46,43%,76%)"/><path d="M644 380L652 384L640 388L644 380Z" fill="hsl(46,54%,87%)"/><path d="M644 364L644 380L640 368L644 364Z" fill="hsl(46,44%,77%)"/><path d="M652 376L644 380L644 364L652 376Z" fill="hsl(46,57%,90%)"/><path d="M652 384L644 380L652 376L652 384Z" fill="hsl(46,59%,92%)"/><path d="M624 388L612 404L628 404L624 388Z" fill="hsl(0,52%,64%)"/><path d="M632 396L648 404L656 388L632 396Z" fill="hsl(0,34%,46%)"/><path d="M668 392L656 408L676 408L668 392Z" fill="hsl(0,47%,59%)"/><path d="M664 384L656 388L668 392L664 384Z" fill="hsl(0,36%,48%)"/><path d="M656 408L656 388L668 392L656 408Z" fill="hsl(0,52%,64%)"/><path d="M648 404L656 408L656 388L648 404Z" fill="hsl(0,36%,48%)"/><path d="M652 384L656 388L664 384L652 384Z" fill="hsl(0,39%,51%)"/><path d="M640 388L656 388L652 384L640 388Z" fill="hsl(0,43%,55%)"/><path d="M632 396L656 388L640 388L632 396Z" fill="hsl(0,48%,60%)"/><path d="M628 384L632 396L640 388L628 384Z" fill="hsl(0,45%,57%)"/><path d="M628 384L624 388L616 384L628 384Z" fill="hsl(0,35%,47%)"/><path d="M632 396L624 388L628 384L632 396Z" fill="hsl(0,44%,56%)"/><path d="M628 404L632 396L624 388L628 404Z" fill="hsl(0,40%,52%)"/><path d="M656 408L632 396L628 404L656 408Z" fill="hsl(0,41%,53%)"/><path d="M628 408L628 404L656 408L628 408Z" fill="hsl(0,38%,50%)"/><path d="M612 404L628 408L628 404L612 404Z" fill="hsl(0,52%,64%)"/><path d="M604 408L612 404L628 408L604 408Z" fill="hsl(0,50%,62%)"/><path d="M616 384L612 404L624 388L616 384Z" fill="hsl(0,46%,58%)"/><path d="M604 408L612 404L616 384L604 408Z" fill="hsl(0,49%,61%)"/></svg>